<svg width="22" height="24" viewBox="0 0 22 24" fill="none" xmlns="http://www.w3.org/2000/svg">
<path d="M10.909 2L9.72584 7.20599C9.49497 8.22185 9.37953 8.72978 9.1391 9.14309C8.92643 9.50868 8.64418 9.81915 8.31183 10.0531C7.93609 10.3176 7.47434 10.4445 6.55083 10.6985L1.81812 12L6.55083 13.3015C7.47434 13.5555 7.93609 13.6824 8.31183 13.9469C8.64418 14.1808 8.92643 14.4913 9.1391 14.8569C9.37953 15.2702 9.49497 15.7782 9.72584 16.794L10.909 22L12.0922 16.794C12.3231 15.7782 12.4385 15.2702 12.6789 14.8569C12.8916 14.4913 13.1739 14.1808 13.5062 13.9469C13.882 13.6824 14.3437 13.5555 15.2672 13.3015L19.9999 12L15.2672 10.6985C14.3437 10.4445 13.882 10.3176 13.5062 10.0531C13.1739 9.81915 12.8916 9.50868 12.6789 9.14309C12.4385 8.72978 12.3231 8.22185 12.0922 7.20599L10.909 2Z" stroke="#4036D2" stroke-width="2" stroke-linecap="round" stroke-linejoin="round"/>
</svg>
